<?xml version="1.0" encoding="utf-8"?>
<!-- Generator: Adobe Illustrator 19.0.0, SVG Export Plug-In . SVG Version: 6.00 Build 0)  -->
<svg version="1.1" id="Layer_1" xmlns="http://www.w3.org/2000/svg" xmlns:xlink="http://www.w3.org/1999/xlink" x="0px" y="0px"
	 viewBox="0 0 32 32" style="enable-background:new 0 0 32 32;" xml:space="preserve">
<style type="text/css">
	.st0{fill:#00FFFF;}
</style>
<polygon id="XMLID_27_" class="st0" points="0,8 2,8 2,6 12,6 12,8 14,8 14,18 12,18 12,20 6,20 6,14 10,14 10,10 4,10 4,22 12,22 
	12,24 2,24 2,22 0,22 "/>
<polygon id="XMLID_44_" class="st0" points="16,8 18,8 18,6 28,6 28,8 30,8 30,18 28,18 28,20 22,20 22,14 26,14 26,10 20,10 20,22 
	28,22 28,24 18,24 18,22 16,22 "/>
</svg>
