<?xml version="1.0" encoding="utf-8"?>
<!-- Generator: Adobe Illustrator 19.0.0, SVG Export Plug-In . SVG Version: 6.00 Build 0)  -->
<svg version="1.1" id="Layer_1" xmlns="http://www.w3.org/2000/svg" xmlns:xlink="http://www.w3.org/1999/xlink" x="0px" y="0px"
	 viewBox="0 0 32 32" style="enable-background:new 0 0 32 32;" xml:space="preserve">
<style type="text/css">
	.st0{fill:#FFF100;}
</style>
<rect id="XMLID_27_" y="8" class="st0" width="2" height="16"/>
<rect id="XMLID_44_" x="2" y="6" class="st0" width="12" height="2"/>
<rect id="XMLID_120_" x="2" y="24" class="st0" width="12" height="2"/>
<polygon id="XMLID_121_" class="st0" points="4,18 4,20 6,20 6,22 10,22 10,20 12,20 12,18 "/>
<rect id="XMLID_122_" x="4" y="10" class="st0" width="2" height="2"/>
<rect id="XMLID_123_" x="10" y="10" class="st0" width="2" height="2"/>
<rect id="XMLID_129_" x="14" y="8" class="st0" width="2" height="16"/>
<rect id="XMLID_128_" x="16" y="6" class="st0" width="12" height="2"/>
<rect id="XMLID_127_" x="16" y="24" class="st0" width="12" height="2"/>
<polygon id="XMLID_126_" class="st0" points="18,18 18,20 20,20 20,22 24,22 24,20 26,20 26,18 "/>
<rect id="XMLID_125_" x="18" y="10" class="st0" width="2" height="2"/>
<rect id="XMLID_124_" x="24" y="10" class="st0" width="2" height="2"/>
<rect id="XMLID_130_" x="28" y="8" class="st0" width="2" height="16"/>
</svg>
