<?xml version="1.0" encoding="utf-8"?>
<!-- Generator: Adobe Illustrator 19.0.0, SVG Export Plug-In . SVG Version: 6.00 Build 0)  -->
<svg version="1.1" id="Layer_1" xmlns="http://www.w3.org/2000/svg" xmlns:xlink="http://www.w3.org/1999/xlink" x="0px" y="0px"
	 viewBox="0 0 32 32" style="enable-background:new 0 0 32 32;" xml:space="preserve">
<style type="text/css">
	.st0{fill:#FFFFFF;}
</style>
<rect id="XMLID_27_" y="10" class="st0" width="4" height="2"/>
<rect id="XMLID_44_" y="14" class="st0" width="4" height="2"/>
<rect id="XMLID_45_" y="18" class="st0" width="4" height="2"/>
<rect id="XMLID_46_" x="12" y="10" class="st0" width="4" height="2"/>
<rect id="XMLID_47_" x="16" y="10" class="st0" width="4" height="2"/>
<rect id="XMLID_48_" x="12" y="14" class="st0" width="4" height="2"/>
<rect id="XMLID_49_" x="16" y="14" class="st0" width="4" height="2"/>
<rect id="XMLID_50_" x="12" y="18" class="st0" width="4" height="2"/>
<rect id="XMLID_51_" x="16" y="18" class="st0" width="4" height="2"/>
<rect id="XMLID_52_" x="28" y="18" class="st0" width="4" height="2"/>
<rect id="XMLID_53_" x="28" y="14" class="st0" width="4" height="2"/>
<rect id="XMLID_54_" x="28" y="10" class="st0" width="4" height="2"/>
<polygon id="XMLID_55_" class="st0" points="6,18 6,26 10,26 10,18 12,18 12,16 4,16 4,18 "/>
<polygon id="XMLID_56_" class="st0" points="22,18 22,26 26,26 26,18 28,18 28,16 20,16 20,18 "/>
<polygon id="XMLID_57_" class="st0" points="10,12 10,4 6,4 6,12 4,12 4,14 12,14 12,12 "/>
<polygon id="XMLID_61_" class="st0" points="26,12 26,4 22,4 22,12 20,12 20,14 28,14 28,12 "/>
<polyline id="XMLID_74_" class="st0" points="6,14 6,16 4,16 4,14 "/>
<polyline id="XMLID_64_" class="st0" points="12,14 12,16 10,16 10,14 "/>
<polyline id="XMLID_75_" class="st0" points="22,14 22,16 20,16 20,14 "/>
<polyline id="XMLID_76_" class="st0" points="28,14 28,16 26,16 26,14 "/>
</svg>
